<svg width="469" height="98" viewBox="0 0 469 98" fill="none" xmlns="http://www.w3.org/2000/svg">
<path d="M386.934 71.1585L396.673 2.29932H414.395L404.656 71.1585H386.934ZM357.056 2.42033C362.841 2.42033 367.768 3.59017 371.837 5.92985C375.999 8.18885 379.006 11.416 380.857 15.6113C382.708 19.8066 383.24 24.6876 382.452 30.2544C381.665 35.8213 379.753 40.7023 376.715 44.8976C373.677 49.0929 369.752 52.3604 364.939 54.7001C360.22 56.9591 354.968 58.0886 349.182 58.0886C343.397 58.0886 338.424 56.9591 334.262 54.7001C330.193 52.3604 327.192 49.0929 325.259 44.8976C323.408 40.7023 322.876 35.8213 323.663 30.2544C324.451 24.6876 326.363 19.8066 329.401 15.6113C332.52 11.416 336.44 8.18885 341.159 5.92985C345.972 3.59017 351.27 2.42033 357.056 2.42033ZM354.882 17.7896C351.378 17.7896 348.372 18.8788 345.864 21.0571C343.438 23.2354 341.945 26.3012 341.386 30.2544C340.827 34.2077 341.447 37.3138 343.246 39.5728C345.138 41.7511 347.835 42.8403 351.339 42.8403C354.843 42.8403 357.849 41.7511 360.357 39.5728C362.876 37.3138 364.415 34.2077 364.975 30.2544C365.534 26.3012 364.867 23.2354 362.975 21.0571C361.083 18.8788 358.386 17.7896 354.882 17.7896ZM457.8 78.7826L455.472 95.241H322.417L327.021 62.6872H344.988L342.711 78.7826H457.8Z" fill="white"/>
<path d="M227.982 19.847L229.796 7.0191H251.185L252.11 0.484131H270.198L269.274 7.0191H290.785L288.971 19.847H227.982ZM321.017 34.3691H310.506L308.23 50.4645H290.63L297.442 2.2994H315.042L312.851 17.7897H323.362L321.017 34.3691ZM254.071 51.4327C246.167 51.4327 239.825 50.1821 235.046 47.6811C230.347 45.1801 228.341 41.5092 229.025 36.6685C229.71 31.8278 232.749 28.1972 238.144 25.7769C243.631 23.2758 250.326 22.0253 258.23 22.0253C266.052 22.0253 272.312 23.2758 277.01 25.7769C281.801 28.1972 283.854 31.8278 283.17 36.6685C282.485 41.5092 279.399 45.1801 273.912 47.6811C268.507 50.1821 261.893 51.4327 254.071 51.4327ZM256.587 33.643C253.246 33.643 250.558 33.9254 248.522 34.4901C246.58 34.9742 245.54 35.7003 245.403 36.6685C245.266 37.6366 246.095 38.4031 247.889 38.9678C249.776 39.4519 252.39 39.6939 255.731 39.6939C258.99 39.6939 261.591 39.4519 263.533 38.9678C265.569 38.4031 266.655 37.6366 266.792 36.6685C266.929 35.7003 266.054 34.9742 264.167 34.4901C262.373 33.9254 259.846 33.643 256.587 33.643ZM304.569 83.2604L302.875 95.2411H223.186L226.9 68.9802H288.378L288.84 65.7128H227.118L228.812 53.732H307.768L304.071 79.8719H242.837L242.358 83.2604H304.569Z" fill="white"/>
<path d="M186.759 54.095L180.94 95.241H163.34L176.484 2.29932H194.084L189.275 36.3053H199.786L197.27 54.095H186.759ZM162.976 4.47764L159.416 29.6494C157.648 42.1545 154.035 53.0058 148.579 62.2032C143.204 71.4005 136.374 78.5002 128.089 83.5023C119.815 88.4237 110.545 90.8844 100.278 90.8844L102.743 73.4578C113.347 73.3771 121.961 69.5046 128.586 61.8401C135.21 54.1756 139.498 43.4454 141.45 29.6494L142.648 21.1781H110.137L112.499 4.47764H162.976Z" fill="white"/>
<path d="M50.4434 42.3563C45.0769 46.3095 38.7709 49.4156 31.5255 51.6746C24.3616 53.9336 16.8571 55.1438 9.01202 55.3052L11.3911 38.4837C18.2698 38.2416 24.6914 36.9105 30.6559 34.4901C36.7019 32.0697 41.3139 28.8426 44.4918 24.8087H15.1585L17.5205 8.1082H48.6871L49.8339 0H67.9228L66.776 8.1082H98.0649L95.7029 24.8087H64.7807C64.2494 26.2609 63.5723 27.5921 62.7492 28.8023L96.5653 39.4518L89.0676 55.3052L50.4434 42.3563ZM56.9345 77.6935L54.1447 97.4194H36.3002L39.0901 77.6935H2.79007L5.18626 60.751H95.5085L93.1123 77.6935H56.9345Z" fill="white"/>
<rect width="26.5494" height="14" transform="matrix(1 0 -0.148327 0.988938 420.076 54)" fill="url(#paint0_linear_6_47)"/>
<rect width="36.8094" height="14" transform="matrix(1 0 -0.148327 0.988938 430.076 35)" fill="url(#paint1_linear_6_47)"/>
<defs>
<linearGradient id="paint0_linear_6_47" x1="5.21507" y1="7" x2="26.5494" y2="7" gradientUnits="userSpaceOnUse">
<stop stop-color="#ABDBFB"/>
<stop offset="1" stop-color="#57C1FF"/>
</linearGradient>
<linearGradient id="paint1_linear_6_47" x1="0" y1="7" x2="36.8094" y2="7" gradientUnits="userSpaceOnUse">
<stop stop-color="#7ACBFF"/>
<stop offset="1" stop-color="#54B9FE"/>
</linearGradient>
</defs>
</svg>
