<svg width="556" height="216" viewBox="0 0 556 216" fill="none" xmlns="http://www.w3.org/2000/svg">
<path fill-rule="evenodd" clip-rule="evenodd" d="M316.089 1.90735e-05C316.089 15.6539 303.243 28.3439 287.398 28.3439C271.552 28.3439 258.707 15.6539 258.707 1.90735e-05L45.7319 0C37.4477 0 29.7239 6.63965 28.4804 14.8301L0.189639 201.17C-1.05386 209.36 4.65379 216 12.9381 216L258.707 216C258.707 200.346 271.552 187.656 287.398 187.656C303.243 187.656 316.089 200.346 316.089 216L510.179 216C518.463 216 526.187 209.36 527.43 201.17L555.721 14.8301C556.964 6.63964 551.257 0 542.973 0L316.089 1.90735e-05Z" fill="url(#paint0_linear_6_41)"/>
<path d="M70.5001 156.595H47.1001L59.3124 75.1726H39.0902L41.8755 56.6025H85.4977L70.5001 156.595ZM144.53 158.309C136.152 158.309 128.996 156.262 123.062 152.167C117.128 148.072 112.862 142.168 110.263 134.454C107.775 126.645 107.338 117.36 108.952 106.599C110.566 95.8377 113.781 86.6003 118.598 78.8866C123.524 71.0776 129.569 65.1257 136.731 61.0308C143.894 56.9358 151.664 54.8884 160.042 54.8884C168.419 54.8884 175.575 56.9358 181.509 61.0308C187.443 65.1257 191.654 71.0776 194.142 78.8866C196.741 86.6003 197.233 95.8377 195.619 106.599C194.005 117.36 190.735 126.645 185.808 134.454C180.992 142.168 175.002 148.072 167.84 152.167C160.678 156.262 152.908 158.309 144.53 158.309ZM147.465 138.739C153.628 138.739 158.836 136.12 163.088 130.883C167.436 125.645 170.432 117.55 172.075 106.599C173.717 95.6473 173.15 87.5526 170.372 82.3149C167.691 77.0772 163.269 74.4583 157.106 74.4583C151.04 74.4583 145.832 77.0772 141.483 82.3149C137.231 87.5526 134.284 95.6473 132.641 106.599C130.999 117.55 131.518 125.645 134.199 130.883C136.976 136.12 141.398 138.739 147.465 138.739ZM235.139 158.309C226.761 158.309 219.605 156.262 213.671 152.167C207.737 148.072 203.471 142.168 200.872 134.454C198.384 126.645 197.947 117.36 199.561 106.599C201.175 95.8377 204.39 86.6003 209.207 78.8866C214.133 71.0776 220.178 65.1257 227.34 61.0308C234.503 56.9358 242.273 54.8884 250.651 54.8884C259.028 54.8884 266.184 56.9358 272.118 61.0308C278.052 65.1257 282.263 71.0776 284.751 78.8866C287.35 86.6003 287.842 95.8377 286.228 106.599C284.614 117.36 281.344 126.645 276.417 134.454C271.601 142.168 265.611 148.072 258.449 152.167C251.287 156.262 243.517 158.309 235.139 158.309ZM238.074 138.739C244.237 138.739 249.445 136.12 253.697 130.883C258.045 125.645 261.041 117.55 262.684 106.599C264.326 95.6473 263.759 87.5526 260.981 82.3149C258.3 77.0772 253.878 74.4583 247.715 74.4583C241.649 74.4583 236.441 77.0772 232.092 82.3149C227.84 87.5526 224.893 95.6473 223.25 106.599C221.608 117.55 222.127 125.645 224.808 130.883C227.585 136.12 232.007 138.739 238.074 138.739ZM407.237 94.5997H394.814L389.051 133.025H368.251L380.442 51.7457H401.242L397.964 73.6013H410.386L407.237 94.5997ZM294.909 115.455L304.271 53.0313H368.694L359.331 115.455H294.909ZM322.329 71.3157L318.472 97.0281H341.584L345.44 71.3157H322.329ZM389.29 142.025L386.376 161.452H291.621L297.384 123.026H318.618L315.768 142.025H389.29ZM502.338 51.7457H523.282L510.513 136.882H489.569L490.018 133.883H462.863L465.113 118.884H492.268L502.338 51.7457ZM451.603 95.314C441.781 95.314 434.17 93.4093 428.771 89.6001C423.483 85.6956 421.381 80.1246 422.467 72.887C423.552 65.6495 427.318 60.1261 433.763 56.3168C440.305 52.5076 448.487 50.603 458.309 50.603C468.131 50.603 475.694 52.5076 480.997 56.3168C486.299 60.1261 488.408 65.6495 487.323 72.887C486.237 80.1246 482.464 85.6956 476.005 89.6001C469.559 93.4093 461.425 95.314 451.603 95.314ZM455.931 66.4589C452.079 66.4589 448.96 67.0303 446.574 68.1731C444.298 69.2206 443.003 70.7919 442.689 72.887C442.361 75.0773 443.177 76.6963 445.139 77.7438C447.196 78.7914 450.151 79.3151 454.003 79.3151C457.855 79.3151 460.918 78.7914 463.194 77.7438C465.47 76.6963 466.772 75.0773 467.1 72.887C467.415 70.7919 466.543 69.2206 464.485 68.1731C462.538 67.0303 459.687 66.4589 455.931 66.4589ZM410.839 115.741L413.346 99.028H462.024C474.35 99.028 483.65 97.6947 489.924 95.0283L487.417 111.741C483.915 113.265 479.713 114.313 474.812 114.884C470.008 115.455 464.043 115.741 456.917 115.741L454.432 132.311H433.632L436.117 115.741H410.839ZM508.272 161.452H412.361L417.589 126.597H438.533L436.027 143.31H510.993L508.272 161.452Z" fill="#000A2E"/>
<defs>
<linearGradient id="paint0_linear_6_41" x1="14.3772" y1="108" x2="529.66" y2="186.219" gradientUnits="userSpaceOnUse">
<stop stop-color="#FEFEFE"/>
<stop offset="1" stop-color="#EAEDFF"/>
</linearGradient>
</defs>
</svg>
