<svg width="49" height="49" viewBox="0 0 49 49" fill="none" xmlns="http://www.w3.org/2000/svg">
<path d="M25.9704 22.0499C24.9904 21.8049 24.0104 21.3149 23.2754 20.5799C22.5404 20.3349 22.2954 19.5999 22.2954 19.1099C22.2954 18.6199 22.5404 17.8849 23.0304 17.6399C23.7654 17.1499 24.5004 16.6599 25.2354 16.9049C26.7054 16.9049 27.9304 17.6399 28.6654 18.6199L30.8704 15.6799C30.1354 14.9449 29.4004 14.4549 28.6654 13.9649C27.9304 13.4749 26.9504 13.2299 25.9704 13.2299V9.7999H23.0304V13.2299C21.8054 13.4749 20.5804 14.2099 19.6004 15.1899C18.6204 16.4149 17.8854 17.8849 18.1304 19.3549C18.1304 20.8249 18.6204 22.2949 19.6004 23.2749C20.8254 24.4999 22.5404 25.2349 24.0104 25.9699C24.7454 26.2149 25.7254 26.7049 26.4604 27.1949C26.9504 27.6849 27.1954 28.4199 27.1954 29.1549C27.1954 29.8899 26.9504 30.6249 26.4604 31.3599C25.7254 32.0949 24.7454 32.3399 24.0104 32.3399C23.0304 32.3399 21.8054 32.0949 21.0704 31.3599C20.3354 30.8699 19.6004 30.1349 19.1104 29.3999L16.6604 32.0949C17.3954 33.0749 18.1304 33.8099 19.1104 34.5449C20.3354 35.2799 21.8054 36.0149 23.2754 36.0149V39.1999H25.9704V35.5249C27.4404 35.2799 28.6654 34.5449 29.6454 33.5649C30.8704 32.3399 31.6054 30.3799 31.6054 28.6649C31.6054 27.1949 31.1154 25.4799 29.8904 24.4999C28.6654 23.2749 27.4404 22.5399 25.9704 22.0499ZM24.5004 4.8999C13.7204 4.8999 4.90039 13.7199 4.90039 24.4999C4.90039 35.2799 13.7204 44.0999 24.5004 44.0999C35.2804 44.0999 44.1004 35.2799 44.1004 24.4999C44.1004 13.7199 35.2804 4.8999 24.5004 4.8999ZM24.5004 41.4049C15.1904 41.4049 7.59539 33.8099 7.59539 24.4999C7.59539 15.1899 15.1904 7.5949 24.5004 7.5949C33.8104 7.5949 41.4054 15.1899 41.4054 24.4999C41.4054 33.8099 33.8104 41.4049 24.5004 41.4049Z" fill="black"/>
</svg>
