<svg width="43" height="49" viewBox="0 0 43 49" fill="none" xmlns="http://www.w3.org/2000/svg">
<path d="M21.0058 7.53508L18.6205 10.7799H13.0501C13.7371 12.7399 15.9862 14.5881 19.1271 13.9747C20.0581 13.9119 23.199 13.4131 24.5005 13.7199C26.2331 14.1354 25.5108 14.1373 28.6174 16.6305L44.1005 29.3999C45.0491 30.2378 46.2623 29.8948 47.1022 28.9481C47.9421 27.9994 47.9891 26.3178 47.0405 25.4799L27.4405 9.79986C26.2135 8.81496 25.9038 7.4508 25.4805 5.87986C24.6573 3.17996 21.63 1.01416 18.6587 1.01416C16.2645 1.01416 13.6881 3.0849 12.7405 4.89986H18.6205L21.0058 7.53508ZM34.4514 31.3599L28.393 20.8445C28.1539 20.4084 27.5492 19.5999 27.0524 19.5999H10.1885C9.69169 19.5999 9.08703 20.4084 8.84693 20.8445L2.94047 31.3599H2.78955C1.79485 31.3599 0.980469 31.7215 0.980469 32.7172V41.7626C0.980469 42.7582 1.79485 43.1199 2.78955 43.1199H4.90047V46.2853C4.90047 47.7788 5.81971 48.9999 7.31225 48.9999H8.21679C9.71031 48.9999 10.7805 47.7788 10.7805 46.2853V43.1199H26.4605V46.2853C26.4605 47.7778 27.5306 48.9999 29.0232 48.9999H29.9277C31.4212 48.9999 32.3405 47.7788 32.3405 46.2853V43.1199H34.4514C35.4461 43.1199 36.2605 42.7582 36.2605 41.7626V32.7172C36.2605 31.7215 35.4461 31.3599 34.4514 31.3599ZM5.95593 38.1444C5.655 38.1507 5.35585 38.0968 5.07601 37.986C4.79617 37.8751 4.54126 37.7096 4.32622 37.499C4.11118 37.2884 3.94035 37.037 3.82372 36.7595C3.70709 36.482 3.64701 36.184 3.64701 35.883C3.64701 35.5821 3.70709 35.2841 3.82372 35.0066C3.94035 34.7291 4.11118 34.4777 4.32622 34.2671C4.54126 34.0565 4.79617 33.891 5.07601 33.7801C5.35585 33.6693 5.655 33.6154 5.95593 33.6217C6.54752 33.634 7.11074 33.8777 7.52477 34.3004C7.93881 34.7232 8.17069 35.2913 8.17069 35.883C8.17069 36.4748 7.93881 37.0429 7.52477 37.4657C7.11074 37.8884 6.54752 38.1321 5.95593 38.1444ZM7.76501 31.3599L11.4312 23.6884C11.6536 23.2435 12.2436 22.5399 12.7405 22.5399H24.5005C24.9973 22.5399 25.5863 23.2435 25.8097 23.6884L29.4759 31.3599H7.76501ZM31.285 38.1444C30.6851 38.1444 30.1098 37.9061 29.6856 37.4819C29.2615 37.0577 29.0232 36.4824 29.0232 35.8826C29.0232 35.2827 29.2615 34.7074 29.6856 34.2832C30.1098 33.859 30.6851 33.6207 31.285 33.6207C31.8849 33.6207 32.4602 33.859 32.8844 34.2832C33.3085 34.7074 33.5468 35.2827 33.5468 35.8826C33.5468 36.4824 33.3085 37.0577 32.8844 37.4819C32.4602 37.9061 31.8849 38.1444 31.285 38.1444Z" fill="black"/>
</svg>
