<svg width="49" height="49" viewBox="0 0 49 49" fill="none" xmlns="http://www.w3.org/2000/svg">
<path d="M44.6235 27.4371C45.4628 26.0159 45.9375 24.5 45.9375 22.6673C45.9375 18.4549 42.3756 14.477 37.7243 14.477H34.233C34.7039 13.2511 35.08 11.7849 35.08 10.023C35.08 3.05638 31.4729 0 25.9623 0C20.0664 0 20.4027 9.08538 19.0947 10.3934C16.9177 12.5703 14.3464 16.7525 12.5141 18.375H3.0625C1.37114 18.375 0 19.7461 0 21.4375V44.4062C0 46.0976 1.37114 47.4688 3.0625 47.4688H9.1875C10.6128 47.4688 11.8105 46.4951 12.1522 45.1767C16.4118 45.2725 19.3357 48.999 29.1684 48.999C29.8594 48.999 30.625 49 31.2949 49C38.6753 49 42.0123 45.2271 42.1036 39.8766C43.3783 38.1133 44.0463 35.7497 43.7631 33.4655C44.7062 31.6996 45.0708 29.6045 44.6235 27.4371ZM38.7138 32.5888C39.9159 34.611 38.8344 37.3175 37.3797 38.0985C38.1166 42.7669 35.6946 44.4053 32.296 44.4053H28.6765C21.8204 44.4053 17.3807 40.7858 12.25 40.7858V22.9688H13.2951C16.0092 22.9688 19.801 16.1844 22.3429 13.6415C25.057 10.9274 24.1526 6.4035 25.9623 4.59375C30.4862 4.59375 30.4862 7.75004 30.4862 10.023C30.4862 13.7717 27.7721 15.4513 27.7721 19.0708H37.7243C39.7445 19.0708 41.3351 20.8805 41.3438 22.6903C41.3524 24.499 40.1168 26.3088 39.2124 26.3088C40.5034 27.7017 40.7792 30.638 38.7138 32.5888ZM8.42188 41.3438C8.42188 42.6123 7.39355 43.6406 6.125 43.6406C4.85645 43.6406 3.82812 42.6123 3.82812 41.3438C3.82812 40.0752 4.85645 39.0469 6.125 39.0469C7.39355 39.0469 8.42188 40.0752 8.42188 41.3438Z" fill="black"/>
</svg>
