<svg width="49" height="49" viewBox="0 0 49 49" fill="none" xmlns="http://www.w3.org/2000/svg">
<path d="M25.375 9.08333C23.4798 9.08333 21.6622 9.8362 20.3221 11.1763C18.982 12.5164 18.2292 14.334 18.2292 16.2292C18.2292 18.1244 18.982 19.9419 20.3221 21.282C21.6622 22.6221 23.4798 23.375 25.375 23.375C27.2702 23.375 29.0878 22.6221 30.4279 21.282C31.768 19.9419 32.5208 18.1244 32.5208 16.2292C32.5208 14.334 31.768 12.5164 30.4279 11.1763C29.0878 9.8362 27.2702 9.08333 25.375 9.08333ZM14.1458 16.2292C14.1458 13.251 15.3289 10.3948 17.4348 8.28895C19.5407 6.18307 22.3968 5 25.375 5C28.3532 5 31.2093 6.18307 33.3152 8.28895C35.4211 10.3948 36.6042 13.251 36.6042 16.2292C36.6042 19.2073 35.4211 22.0635 33.3152 24.1694C31.2093 26.2753 28.3532 27.4583 25.375 27.4583C22.3968 27.4583 19.5407 26.2753 17.4348 24.1694C15.3289 22.0635 14.1458 19.2073 14.1458 16.2292ZM7 39.7083C7 37.0009 8.07552 34.4044 9.98995 32.49C11.9044 30.5755 14.5009 29.5 17.2083 29.5H33.5417C36.2491 29.5 38.8456 30.5755 40.76 32.49C42.6745 34.4044 43.75 37.0009 43.75 39.7083V45.8333H7V39.7083ZM17.2083 33.5833C15.5839 33.5833 14.026 34.2286 12.8773 35.3773C11.7286 36.526 11.0833 38.0839 11.0833 39.7083V41.75H39.6667V39.7083C39.6667 38.0839 39.0214 36.526 37.8727 35.3773C36.724 34.2286 35.1661 33.5833 33.5417 33.5833H17.2083Z" fill="black"/>
</svg>
