<svg width="101" height="96" viewBox="0 0 101 96" fill="none" xmlns="http://www.w3.org/2000/svg">
<path d="M4.9822 19.847L6.79646 7.0191H28.1853L29.1096 0.484131H47.1985L46.2742 7.0191H67.7853L65.9711 19.847H4.9822ZM98.0172 34.3691H87.5061L85.2297 50.4645H67.6297L74.4418 2.2994H92.0418L89.851 17.7897H100.362L98.0172 34.3691ZM31.0706 51.4327C23.1669 51.4327 16.8252 50.1821 12.0456 47.6811C7.34747 45.1801 5.34071 41.5092 6.02533 36.6685C6.70996 31.8278 9.74937 28.1972 15.1435 25.7769C20.6306 23.2758 27.326 22.0253 35.2297 22.0253C43.0519 22.0253 49.3121 23.2758 54.0102 25.7769C58.8012 28.1972 60.8544 31.8278 60.1698 36.6685C59.4852 41.5092 56.3993 45.1801 50.9123 47.6811C45.5067 50.1821 38.8928 51.4327 31.0706 51.4327ZM33.5866 33.643C30.2458 33.643 27.5577 33.9254 25.5223 34.4901C23.5798 34.9742 22.54 35.7003 22.4031 36.6685C22.2662 37.6366 23.0948 38.4031 24.889 38.9678C26.7761 39.4519 29.3901 39.6939 32.7308 39.6939C35.9901 39.6939 38.5909 39.4519 40.5335 38.9678C42.5689 38.4031 43.6551 37.6366 43.792 36.6685C43.9289 35.7003 43.0538 34.9742 41.1668 34.4901C39.3726 33.9254 36.8458 33.643 33.5866 33.643ZM81.5692 83.2604L79.8747 95.2411H0.185811L3.89991 68.9802H65.3777L65.8398 65.7128H4.11759L5.81204 53.732H84.7676L81.0706 79.8719H19.8373L19.358 83.2604H81.5692Z" fill="white"/>
</svg>
