<svg width="97" height="98" viewBox="0 0 97 98" fill="none" xmlns="http://www.w3.org/2000/svg">
<path d="M48.4434 42.3563C43.0769 46.3095 36.7709 49.4156 29.5255 51.6746C22.3616 53.9336 14.8571 55.1438 7.01202 55.3052L9.3911 38.4837C16.2698 38.2416 22.6914 36.9105 28.6559 34.4901C34.7019 32.0697 39.3139 28.8426 42.4918 24.8087H13.1585L15.5205 8.1082H46.6871L47.8339 0H65.9228L64.776 8.1082H96.0649L93.7029 24.8087H62.7807C62.2494 26.2609 61.5723 27.5921 60.7492 28.8023L94.5653 39.4518L87.0676 55.3052L48.4434 42.3563ZM54.9345 77.6935L52.1447 97.4194H34.3002L37.0901 77.6935H0.790066L3.18626 60.751H93.5085L91.1123 77.6935H54.9345Z" fill="white"/>
</svg>
