<svg width="136" height="94" viewBox="0 0 136 94" fill="none" xmlns="http://www.w3.org/2000/svg">
<path d="M64.9339 69.1585L74.6728 0.299316H92.395L82.6562 69.1585H64.9339ZM35.0556 0.420331C40.8408 0.420331 45.768 1.59017 49.8371 3.92985C53.999 6.18885 57.0056 9.41599 58.8567 13.6113C60.7078 17.8066 61.2397 22.6876 60.4524 28.2544C59.6651 33.8213 57.7525 38.7023 54.7147 42.8976C51.6769 47.0929 47.7518 50.3604 42.9394 52.7001C38.22 54.9591 32.9676 56.0886 27.1824 56.0886C21.3972 56.0886 16.4237 54.9591 12.2617 52.7001C8.19258 50.3604 5.19175 47.0929 3.25916 42.8976C1.40806 38.7023 0.87615 33.8213 1.66347 28.2544C2.45079 22.6876 4.36336 17.8066 7.40115 13.6113C10.5204 9.41599 14.4398 6.18885 19.1593 3.92985C23.9717 1.59017 29.2705 0.420331 35.0556 0.420331ZM32.8819 15.7896C29.3782 15.7896 26.3724 16.8788 23.8643 19.0571C21.4377 21.2354 19.9448 24.3012 19.3857 28.2544C18.8266 32.2077 19.4466 35.3138 21.2456 37.5728C23.1375 39.7511 25.8353 40.8403 29.339 40.8403C32.8427 40.8403 35.8486 39.7511 38.3567 37.5728C40.8762 35.3138 42.4155 32.2077 42.9746 28.2544C43.5337 24.3012 42.8673 21.2354 40.9754 19.0571C39.0835 16.8788 36.3857 15.7896 32.8819 15.7896ZM135.8 76.7826L133.472 93.241H0.416819L5.02093 60.6872H22.9876L20.7112 76.7826H135.8Z" fill="white"/>
</svg>
